<?xml version="1.0" standalone="no"?>
<!DOCTYPE svg PUBLIC "-//W3C//DTD SVG 20010904//EN"
 "http://www.w3.org/TR/2001/REC-SVG-20010904/DTD/svg10.dtd">
<svg version="1.0" xmlns="http://www.w3.org/2000/svg"
 width="1200.000000pt" height="1200.000000pt" viewBox="0 0 1200.000000 1200.000000"
 preserveAspectRatio="xMidYMid meet">
<metadata>
Created by potrace 1.14, written by Peter Selinger 2001-2017
</metadata>
<g transform="translate(0.000000,1200.000000) scale(0.100000,-0.100000)"
fill="#000000" stroke="none">
<path d="M2747 10524 c-1 -1 -30 -4 -64 -7 -72 -7 -175 -45 -251 -94 -129 -82
-238 -245 -268 -398 -4 -22 -8 -258 -10 -525 -1 -267 -3 -489 -3 -495 -1 -6
-77 -10 -204 -11 -224 -1 -296 -12 -432 -64 -47 -18 -168 -79 -175 -89 -3 -4
-21 -18 -40 -31 -122 -83 -252 -259 -313 -425 -59 -156 -56 50 -53 -3410 1
-1749 5 -3196 8 -3215 31 -175 45 -208 101 -254 l39 -31 4891 0 c2691 0 4911
3 4934 7 68 12 121 73 137 160 2 13 7 39 10 58 14 75 17 124 22 380 2 146 5
270 5 275 1 6 0 14 -1 20 -1 5 -1 48 0 95 1 47 1 90 1 95 -2 96 -2 162 0 170
1 6 1 13 0 17 -2 15 -3 133 -1 143 1 6 2 14 1 18 -4 26 -4 158 1 162 3 3 2 23
-2 45 -4 21 -3 44 1 51 4 8 3 19 -2 25 -7 8 -6 14 1 19 6 3 8 10 5 15 -3 5 -5
96 -5 202 1 106 1 202 1 213 -1 92 0 190 3 192 2 2 0 20 -4 39 -4 19 -4 36 0
39 4 2 4 22 0 44 -4 22 -4 45 1 52 4 7 6 16 4 19 -2 3 -4 33 -5 66 -1 58 -2
344 -1 374 0 8 0 103 0 210 -1 107 -1 202 0 210 0 8 1 31 0 50 0 19 0 42 0 50
0 8 0 112 0 230 0 118 0 222 0 230 3 103 1 272 -4 280 -3 5 -3 10 2 10 4 0 7
82 5 182 -4 265 -3 288 3 298 3 5 1 11 -5 15 -6 4 -8 11 -4 16 8 13 7 426 -1
439 -3 6 -3 10 2 10 9 0 8 283 -1 306 -3 8 -2 14 2 14 4 0 6 87 4 192 -3 243
-3 289 4 299 3 5 0 9 -6 9 -6 0 -8 5 -5 11 9 13 8 426 0 439 -3 6 -2 10 2 10
5 0 8 15 7 33 -8 132 -16 209 -28 255 -8 29 -15 55 -15 57 -1 3 -3 10 -6 17
-2 7 -11 33 -19 58 -15 48 -68 151 -95 186 -9 12 -23 32 -31 45 -25 38 -133
143 -191 185 -105 78 -240 136 -369 160 -14 3 -36 7 -50 10 -14 3 -374 6 -800
7 l-775 2 -1 495 c-1 439 -3 503 -19 565 -16 66 -71 186 -87 193 -5 2 -8 9 -8
16 0 13 -79 97 -131 138 -46 37 -176 101 -189 93 -5 -3 -10 -2 -10 3 0 5 -21
13 -47 18 -37 6 -5458 14 -5466 8z"/>
</g>
</svg>
